<svg
  width="58"
  height="36"
  viewBox="0 0 58 36"
  fill="none"
  xmlns="http://www.w3.org/2000/svg"
>
  <path
    d="M11.632 0.391999C13.296 0.391999 14.624 0.551999 15.616 0.871999C16.608 1.192 17.616 1.656 18.64 2.264C18.992 2.456 19.296 2.616 19.552 2.744C19.84 2.872 20.08 2.936 20.272 2.936C20.56 2.936 20.784 2.776 20.944 2.456C21.104 2.104 21.232 1.56 21.328 0.823999H22.432C22.272 2.968 22.192 6.616 22.192 11.768H21.088C20.96 10.04 20.56 8.392 19.888 6.824C19.248 5.256 18.32 3.992 17.104 3.032C15.92 2.04 14.528 1.544 12.928 1.544C11.36 1.544 10.08 1.992 9.088 2.888C8.128 3.752 7.648 4.936 7.648 6.44C7.648 7.56 7.888 8.536 8.368 9.368C8.848 10.2 9.52 10.968 10.384 11.672C11.248 12.344 12.576 13.272 14.368 14.456L15.904 15.512C17.792 16.76 19.28 17.848 20.368 18.776C21.456 19.704 22.336 20.792 23.008 22.04C23.712 23.256 24.064 24.68 24.064 26.312C24.064 28.36 23.536 30.088 22.48 31.496C21.424 32.872 19.984 33.912 18.16 34.616C16.368 35.32 14.368 35.672 12.16 35.672C10.368 35.672 8.88 35.512 7.696 35.192C6.512 34.872 5.424 34.44 4.432 33.896C3.728 33.448 3.184 33.224 2.8 33.224C2.512 33.224 2.288 33.4 2.128 33.752C1.968 34.072 1.84 34.6 1.744 35.336H0.64C0.768 33.32 0.832 29 0.832 22.376H1.936C2.16 25.96 2.96 28.872 4.336 31.112C5.712 33.32 7.824 34.424 10.672 34.424C12.4 34.424 13.824 33.96 14.944 33.032C16.064 32.104 16.624 30.776 16.624 29.048C16.624 27.256 16.048 25.72 14.896 24.44C13.744 23.16 11.92 21.72 9.424 20.12C7.504 18.872 5.968 17.784 4.816 16.856C3.664 15.928 2.72 14.84 1.984 13.592C1.248 12.312 0.88 10.84 0.88 9.176C0.88 7.256 1.36 5.64 2.32 4.328C3.312 2.984 4.624 1.992 6.256 1.352C7.888 0.711999 9.68 0.391999 11.632 0.391999ZM45.0873 0.343997C47.0073 0.343997 48.6393 0.615997 49.9833 1.16C51.3273 1.704 52.6393 2.472 53.9193 3.464C54.2713 3.752 54.5753 3.896 54.8313 3.896C55.4713 3.896 55.8873 2.936 56.0793 1.016H57.1833C57.0553 3.192 56.9913 7.064 56.9913 12.632H55.8873C55.5993 10.264 55.2153 8.456 54.7353 7.208C54.2553 5.96 53.4393 4.872 52.2873 3.944C51.4873 3.176 50.5593 2.6 49.5033 2.216C48.4473 1.8 47.3433 1.592 46.1913 1.592C42.9593 1.592 40.5593 3.176 38.9913 6.344C37.4233 9.48 36.6393 13.4 36.6393 18.104C36.6393 22.776 37.4553 26.68 39.0873 29.816C40.7193 32.952 43.1513 34.52 46.3833 34.52C47.4713 34.52 48.5433 34.328 49.5993 33.944C50.6873 33.528 51.5993 32.936 52.3353 32.168C53.5193 31.272 54.3353 30.152 54.7833 28.808C55.2633 27.464 55.6313 25.496 55.8873 22.904H56.9913C56.9913 28.696 57.0553 32.728 57.1833 35H56.0793C55.9833 33.976 55.8393 33.256 55.6473 32.84C55.4873 32.392 55.2473 32.168 54.9273 32.168C54.6713 32.168 54.3353 32.296 53.9193 32.552C52.4793 33.576 51.1033 34.36 49.7913 34.904C48.4793 35.416 46.8953 35.672 45.0393 35.672C41.6473 35.672 38.6713 34.984 36.1113 33.608C33.5833 32.232 31.6153 30.248 30.2073 27.656C28.7993 25.032 28.0953 21.912 28.0953 18.296C28.0953 14.776 28.8153 11.656 30.2553 8.936C31.6953 6.216 33.6953 4.104 36.2553 2.6C38.8473 1.096 41.7913 0.343997 45.0873 0.343997Z"
    fill="white"
  />
</svg>
 