<svg
  width="53"
  height="53"
  viewBox="0 0 53 53"
  fill="none"
  xmlns="http://www.w3.org/2000/svg"
>
  <path
    d="M52.8407 15.5742C52.7117 12.7534 52.2637 10.8271 51.6086 9.14172C50.9434 7.37347 49.9002 5.7718 48.5521 4.44794C47.2286 3.09981 45.6265 2.05616 43.8583 1.39059C42.1725 0.735931 40.2466 0.288307 37.4258 0.160126C34.5997 0.0307312 33.6968 0 26.5 0C19.3032 0 18.4003 0.0307312 15.5742 0.159317C12.7534 0.288307 10.8275 0.736336 9.14172 1.3914C7.37347 2.05656 5.7718 3.09981 4.44794 4.44794C3.09981 5.7714 2.05616 7.37306 1.39059 9.14132C0.735931 10.8271 0.288307 12.7534 0.160126 15.5738C0.0307312 18.4003 0 19.3028 0 26.4996C0 33.6968 0.0307312 34.5997 0.160126 37.4258C0.288711 40.2461 0.73674 42.1725 1.3918 43.8583C2.05697 45.6261 3.10021 47.2282 4.44834 48.5517C5.7718 49.8998 7.37387 50.943 9.14213 51.6082C10.8275 52.2637 12.7539 52.7113 15.5747 52.8403C18.4011 52.9693 19.3036 52.9996 26.5004 52.9996C33.6972 52.9996 34.6001 52.9693 37.4262 52.8403C40.247 52.7113 42.1729 52.2637 43.8587 51.6082C47.4182 50.2318 50.2322 47.4178 51.6086 43.8583C52.2641 42.1725 52.7117 40.2461 52.8407 37.4258C52.9693 34.5993 53 33.6968 53 26.5C53 19.3028 52.9693 18.4003 52.8407 15.5742ZM48.0705 37.2086C47.9528 39.7925 47.521 41.1956 47.1582 42.1292C46.2666 44.4406 44.4401 46.267 42.1288 47.1586C41.1952 47.5214 39.7921 47.9532 37.2082 48.0709C34.4145 48.1987 33.5763 48.2253 26.5 48.2253C19.4233 48.2253 18.5855 48.1987 15.7914 48.0709C13.2079 47.9532 11.8048 47.5214 10.8708 47.1586C9.71996 46.7337 8.67873 46.0564 7.82392 45.1761C6.94363 44.3213 6.26633 43.2804 5.84135 42.1292C5.47865 41.1956 5.04679 39.7925 4.92912 37.2086C4.80175 34.4145 4.77466 33.5763 4.77466 26.5004C4.77466 19.4241 4.80175 18.5863 4.92912 15.7918C5.0472 13.2079 5.47865 11.8048 5.84135 10.8712C6.26633 9.71996 6.94404 8.67873 7.82392 7.82392C8.67873 6.94363 9.71996 6.26633 10.8712 5.84176C11.8048 5.47865 13.2079 5.0472 15.7918 4.92912C18.5859 4.80175 19.4241 4.77466 26.5 4.77466H26.4996C33.5755 4.77466 34.4137 4.80175 37.2082 4.92953C39.7921 5.0472 41.1948 5.47905 42.1288 5.84176C43.2796 6.26674 44.3209 6.94404 45.1757 7.82392C46.056 8.67873 46.7333 9.71996 47.1578 10.8712C47.521 11.8048 47.9528 13.2079 48.0705 15.7918C48.1978 18.5859 48.2249 19.4241 48.2249 26.5C48.2249 33.5763 48.1982 34.4141 48.0705 37.2086Z"
    fill="url(#paint0_linear)"
  />
  <path
    d="M26.4995 12.8918C18.9841 12.8918 12.8916 18.9847 12.8916 26.5001C12.8916 34.0155 18.9841 40.108 26.4995 40.108C34.0153 40.108 40.1077 34.0155 40.1077 26.5001C40.1077 18.9847 34.0153 12.8918 26.4995 12.8918ZM26.4995 35.3333C21.6213 35.3329 17.6663 31.3783 17.6667 26.4997C17.6667 21.6215 21.6213 17.6665 26.4999 17.6665C31.3784 17.6669 35.3331 21.6215 35.3331 26.4997C35.3331 31.3783 31.378 35.3333 26.4995 35.3333Z"
    fill="url(#paint1_linear)"
  />
  <path
    d="M43.826 12.3543C43.826 14.1105 42.4022 15.5342 40.6461 15.5342C38.8896 15.5342 37.4658 14.1105 37.4658 12.3543C37.4658 10.5978 38.8896 9.17407 40.6461 9.17407C42.4022 9.17407 43.826 10.5978 43.826 12.3543Z"
    fill="url(#paint2_linear)"
  />
  <defs>
    <linearGradient
      id="paint0_linear"
      x1="4.44767"
      y1="48.5519"
      x2="48.5523"
      y2="4.44724"
      gradientUnits="userSpaceOnUse"
    >
      <stop stopColor="#FFD600" />
      <stop offset="0.5" stopColor="#FF0100" />
      <stop offset="1" stopColor="#D800B9" />
    </linearGradient>
    <linearGradient
      id="paint1_linear"
      x1="16.8774"
      y1="36.1223"
      x2="36.122"
      y2="16.8776"
      gradientUnits="userSpaceOnUse"
    >
      <stop stopColor="#FF6400" />
      <stop offset="0.5" stopColor="#FF0100" />
      <stop offset="1" stopColor="#FD0056" />
    </linearGradient>
    <linearGradient
      id="paint2_linear"
      x1="38.3974"
      y1="14.6027"
      x2="42.8945"
      y2="10.1056"
      gradientUnits="userSpaceOnUse"
    >
      <stop stopColor="#F30072" />
      <stop offset="1" stopColor="#E50097" />
    </linearGradient>
  </defs>
</svg>

